<?xml version="1.0" encoding="UTF-8" standalone="no"?>
<!-- Created with Inkscape (http://www.inkscape.org/) -->

<svg
   width="300mm"
   height="300mm"
   viewBox="0 0 300 300"
   version="1.1"
   id="svg1"
   inkscape:version="1.3 (0e150ed6c4, 2023-07-21)"
   sodipodi:docname="background_tilemap_2.svg"
   inkscape:export-filename="background_tilemap_2.png"
   inkscape:export-xdpi="25.4"
   inkscape:export-ydpi="25.4"
   xmlns:inkscape="http://www.inkscape.org/namespaces/inkscape"
   xmlns:sodipodi="http://sodipodi.sourceforge.net/DTD/sodipodi-0.dtd"
   xmlns="http://www.w3.org/2000/svg"
   xmlns:svg="http://www.w3.org/2000/svg">
  <sodipodi:namedview
     id="namedview1"
     pagecolor="#ffffff"
     bordercolor="#000000"
     borderopacity="0.25"
     inkscape:showpageshadow="2"
     inkscape:pageopacity="0.0"
     inkscape:pagecheckerboard="0"
     inkscape:deskcolor="#d1d1d1"
     inkscape:document-units="cm"
     inkscape:zoom="0.52248527"
     inkscape:cx="413.40878"
     inkscape:cy="557.91047"
     inkscape:window-width="1920"
     inkscape:window-height="1009"
     inkscape:window-x="-8"
     inkscape:window-y="144"
     inkscape:window-maximized="1"
     inkscape:current-layer="layer1" />
  <defs
     id="defs1" />
  <g
     inkscape:label="Layer 1"
     inkscape:groupmode="layer"
     id="layer1">
    <rect
       style="fill:#ff00ff;stroke:none;stroke-width:0.455986"
       id="rect2"
       width="46.141087"
       height="46.141087"
       x="55.920948"
       y="-1.7553656"
       transform="matrix(0.8669063,0.49847114,-0.86690631,0.49847111,0,0)" />
    <rect
       style="fill:#ff00ff;stroke:none;stroke-width:0.455986"
       id="rect2-8"
       width="46.141087"
       height="46.141087"
       x="113.59894"
       y="-59.433361"
       transform="matrix(0.8669063,0.49847114,-0.86690631,0.49847111,0,0)" />
    <rect
       style="fill:#ff00ff;stroke:none;stroke-width:0.455986"
       id="rect2-8-7"
       width="46.141087"
       height="46.141087"
       x="171.27367"
       y="-117.10808"
       transform="matrix(0.8669063,0.49847114,-0.86690631,0.49847111,0,0)" />
    <rect
       style="fill:#ff00ff;stroke:none;stroke-width:0.455986"
       id="rect2-89"
       width="46.141087"
       height="46.141087"
       x="156.22768"
       y="98.551369"
       transform="matrix(0.8669063,0.49847114,-0.86690631,0.49847111,0,0)" />
    <rect
       style="fill:#ff00ff;stroke:none;stroke-width:0.455986"
       id="rect2-8-9"
       width="46.141087"
       height="46.141087"
       x="213.90565"
       y="40.873356"
       transform="matrix(0.8669063,0.49847114,-0.86690631,0.49847111,0,0)" />
    <rect
       style="fill:#ff00ff;stroke:none;stroke-width:0.455986"
       id="rect2-8-7-4"
       width="46.141087"
       height="46.141087"
       x="271.58054"
       y="-16.801374"
       transform="matrix(0.8669063,0.49847114,-0.86690631,0.49847111,0,0)" />
    <rect
       style="fill:#ff00ff;stroke:none;stroke-width:0.455986"
       id="rect2-89-9"
       width="46.141087"
       height="46.141087"
       x="256.53455"
       y="198.85809"
       transform="matrix(0.8669063,0.49847114,-0.86690631,0.49847111,0,0)" />
    <rect
       style="fill:#ff00ff;stroke:none;stroke-width:0.455986"
       id="rect2-8-9-0"
       width="46.141087"
       height="46.141087"
       x="314.21252"
       y="141.18011"
       transform="matrix(0.8669063,0.49847114,-0.86690631,0.49847111,0,0)" />
    <rect
       style="fill:#ff00ff;stroke:none;stroke-width:0.455986"
       id="rect2-8-7-4-5"
       width="46.141087"
       height="46.141087"
       x="371.88727"
       y="83.505379"
       transform="matrix(0.8669063,0.49847114,-0.86690631,0.49847111,0,0)" />
    <path
       style="fill:#008000;stroke:none;stroke-width:0.499999"
       d="m 21.178566,54.121428 c 0.835507,0 1.676125,0.09226 2.506523,0 1.097184,-0.121909 5.19209,-1.867109 6.087266,-2.506522 0.41207,-0.294336 0.63455,-0.822981 1.074224,-1.074222 0.427286,-0.244165 0.979964,-0.164219 1.432298,-0.358076 0.493466,-0.211484 4.233878,-2.443504 4.654968,-2.864596 0.0844,-0.0844 -0.09931,-0.291868 0,-0.358074 0.314052,-0.209368 0.736629,-0.189278 1.074224,-0.358074 0.76603,-0.383016 1.419442,-0.994897 2.148448,-1.432298 0.759458,-0.455676 1.740538,-0.563571 2.506523,-1.074224 0.280895,-0.187264 0.43525,-0.528884 0.716147,-0.716151 0.444138,-0.29609 1.005269,-0.395877 1.432298,-0.716147 0.540155,-0.405117 0.82839,-1.130343 1.432298,-1.432298 0.440172,-0.220086 0.979964,-0.164217 1.432299,-0.358074 1.057888,-0.453382 2.353386,-1.892845 3.580746,-2.506523 0.533003,-0.266501 0.954812,-1.113975 1.432298,-1.432298 0.09931,-0.06621 0.273674,0.0844 0.358074,0 0.0844,-0.0844 -0.0844,-0.273677 0,-0.358076 0.06598,-0.06598 1.008245,-0.292095 1.074224,-0.358074 0.188722,-0.188722 0.169352,-0.527426 0.358074,-0.716148 0.274873,-0.274873 1.127247,-0.205549 1.432298,-0.358076 0.106757,-0.05338 -0.0844,-0.273675 0,-0.358074 0.0844,-0.0844 0.273674,0.0844 0.358074,0 0.0844,-0.0844 -0.0844,-0.273674 0,-0.358074 0.0844,-0.0844 0.273677,0.0844 0.358076,0 0.143328,-0.143327 0.193924,-0.455038 0.716148,-0.71615 0.213513,-0.106757 0.547351,0.168799 0.71615,0 0.0844,-0.0844 -0.0844,-0.273675 0,-0.358074 0.0844,-0.0844 0.358074,0.119359 0.358074,0 0,-0.325834 -1.441765,0.313685 -2.506522,1.074224 -1.520201,1.085858 -2.777924,2.395334 -4.654968,2.864596 -0.81879,0.204698 -1.691029,0.14061 -2.506522,0.358074 -1.565773,0.417539 -3.115699,1.25163 -4.654968,1.790375 -3.839665,1.343882 -7.872632,2.662883 -11.458387,4.654968 -0.521687,0.289827 -0.886942,0.831844 -1.432298,1.074224 -0.556154,0.247179 -1.246016,0.08589 -1.790372,0.358074 -0.452932,0.226465 -0.685202,0.750038 -1.074224,1.074224 -2.029812,1.69151 -0.05493,-0.318842 -2.506523,1.432298 -0.758576,0.54184 -1.440653,1.183693 -2.148445,1.790372 -0.474663,0.406855 -2.246614,2.171512 -2.506523,2.864596 -0.167637,0.447035 0.362495,1.12159 0,1.432298 -4.310147,1.231471 -1.64276,-0.196813 -2.864596,1.432298 -0.258212,0.344281 -1.101066,0.881764 -0.716147,1.074224 1.199634,0.599819 3.154685,-2.198812 3.580743,-2.506522 1.476997,-1.066718 3.128907,-1.869337 4.654968,-2.864596 3.751083,-2.446359 7.286472,-5.158616 11.100311,-7.519564 2.834994,-1.754997 5.950701,-3.315383 8.593791,-5.371119 0.399722,-0.310896 0.678796,-0.757883 1.074221,-1.074224 0.20841,-0.166727 0.527429,-0.169352 0.716151,-0.358074 0.0844,-0.0844 -0.0844,-0.273677 0,-0.358076 0.168799,-0.168796 0.884946,-0.168796 0.716147,0 -1.318352,1.318355 -2.922518,2.320901 -4.296894,3.580746 -0.74658,0.684366 -1.352074,1.522725 -2.148446,2.148449 -1.883484,1.479878 -5.065863,2.227678 -6.445342,4.296894 -0.209367,0.314052 0.787649,-0.112437 1.074224,-0.358077 0.640805,-0.549259 1.168223,-1.220067 1.790372,-1.790371 2.271287,-2.082012 3.016946,-2.601741 5.729192,-4.296895 1.221211,-0.763256 2.733823,-1.236136 3.580747,-2.506522 0.331038,-0.496559 -0.973831,0.692169 -1.432298,1.074224 -2.090934,1.742446 -4.082172,3.662659 -6.445343,5.013045 -2.605122,1.488641 -6.003726,2.064906 -8.235714,4.296894 -0.188722,0.188722 0.477432,-0.238718 0.71615,-0.358077 0.716148,-0.358073 1.476222,-0.639251 2.148446,-1.074221 4.833868,-3.127798 9.426045,-6.495862 13.964906,-10.026089 0.339702,-0.26421 0.769919,-0.411843 1.074225,-0.716148 0.0844,-0.0844 -0.251318,-0.05338 -0.358074,0 -0.622496,0.311248 -1.224037,0.669698 -1.790372,1.074224 -3.779073,2.699338 -7.587943,5.297342 -11.458387,7.877638 -0.800677,0.533787 -1.705843,0.898515 -2.50652,1.432298 -0.280897,0.187267 -0.954865,0.477433 -0.71615,0.716151 0.94361,0.94361 2.513174,-0.989695 3.580746,-1.790372 3.361063,-2.520799 6.794217,-4.826344 10.026087,-7.519567 0.587123,-0.48927 1.13502,-1.039085 1.790372,-1.432298 0.102348,-0.06141 0.09461,0.2853 0,0.358074 -5.100815,3.923705 -10.971316,6.72602 -16.471429,10.026089 -0.271148,0.162687 -6.41122,3.674475 -6.803417,4.654968 -0.177313,0.443285 0.99881,0.200073 1.432298,0 1.172229,-0.541028 2.124933,-1.468893 3.222673,-2.148449 4.682355,-2.8986 9.602073,-5.403169 14.32298,-8.235711 1.334466,-0.80068 2.597444,-1.717477 3.938821,-2.506523 0.690131,-0.40596 1.412507,-0.758822 2.148445,-1.074224 0.10971,-0.04702 0.477433,0 0.358077,0 -1.83818,0 -7.326749,4.342797 -7.877641,4.654968 -4.012295,2.273636 -8.461671,3.773673 -11.458384,7.519567 -0.223687,0.279609 0.767178,0.184227 1.074224,0 1.023488,-0.614093 1.893337,-1.454692 2.864596,-2.148448 3.843327,-2.745235 5.641062,-3.89494 9.668013,-6.44534 2.024697,-1.282311 6.887503,-4.022908 8.951862,-6.087269 0.492127,-0.492125 -1.20019,0.705361 -1.790372,1.074224 -1.319689,0.824807 -2.604355,1.705843 -3.93882,2.506522 -3.440504,2.064301 -6.93243,4.041797 -10.384163,6.087267 -0.934588,0.553831 -5.578721,3.072201 -6.803414,4.296894 -0.347988,0.347985 1.010301,0.611272 1.432298,0.358073 2.725246,-1.635146 5.211289,-3.641592 7.877638,-5.371115 1.751682,-1.136227 3.623596,-2.080062 5.371118,-3.222673 1.358776,-0.888428 2.541151,-2.038699 3.938821,-2.864596 0.123655,-0.07307 4.654968,-1.722117 4.654968,-2.506522 0,-0.266891 -0.485611,0.223597 -0.716148,0.358076 -5.820987,3.395576 -11.508449,7.007485 -17.545653,10.026087 -5.243444,2.621722 -11.450166,4.505163 -16.113352,8.235714 -0.09321,0.07456 0.240339,-0.01963 0.358073,0 0.600329,0.100055 1.241698,0.621438 1.790372,0.358074 2.56676,-1.232046 4.734812,-3.165869 7.161491,-4.654968 8.166377,-5.011184 16.858942,-9.041143 25.065217,-13.964907 1.476097,-0.885658 2.864596,-1.90973 4.296894,-2.864596 0.358076,-0.238717 1.504577,-0.71615 1.074224,-0.71615 -0.642763,0 -1.215467,0.428696 -1.790372,0.71615 -1.576252,0.788125 -3.069225,1.737675 -4.654971,2.50652 -2.355468,1.142047 -4.761827,2.176666 -7.16149,3.222672 -2.255649,0.983232 -4.518776,1.950742 -6.803416,2.864597 -1.893713,0.757486 -3.862321,1.327023 -5.729192,2.148445 -1.1248,0.494914 -2.168925,1.158127 -3.22267,1.790375 -0.144743,0.08684 -0.524576,0.330324 -0.358074,0.358074 3.36078,0.560131 2.873023,-0.497621 6.087266,-2.506523 4.629885,-2.893679 9.416899,-5.561782 13.964907,-8.593788 0.635907,-0.423939 1.203248,-0.943028 1.790371,-1.432298 0.129675,-0.108061 0.358077,-0.189277 0.358077,-0.358074 0,-0.932217 -1.470713,1.15029 -2.148448,1.790372 -1.535206,1.449917 -2.990927,2.996861 -4.654968,4.296894 -5.497677,4.295061 -9.123127,5.954035 -15.397205,9.309939 -2.259775,1.208717 -4.775568,2.01377 -6.803416,3.580744 -0.719283,0.55581 -1.956089,2.726989 -1.074225,2.506522 2.54221,-0.635553 4.535612,-2.625878 6.803417,-3.93882 7.797038,-4.514075 15.241259,-9.500778 23.274845,-13.606833 2.472023,-1.263478 5.005829,-2.40243 7.519564,-3.580744 1.354164,-0.634764 4.996336,-1.09093 3.93882,-2.148448 -0.0844,-0.0844 -0.255725,-0.06141 -0.358074,0 -1.107072,0.664244 -2.130136,1.460555 -3.222672,2.148448 -7.701426,4.849048 -15.761047,9.049433 -23.632919,13.606833 -1.806935,1.04612 -3.564181,2.17655 -5.371116,3.22267 -0.461954,0.267446 -1.950148,0.586687 -1.432298,0.71615 2.868898,0.717225 6.115444,-2.566149 7.877638,-3.580746 8.205962,-4.724644 5.522539,-2.375017 13.606833,-7.519564 1.732473,-1.102485 3.392096,-2.32001 5.013044,-3.580747 0.532964,-0.414528 1.218782,-0.791755 1.432298,-1.432298 0.119356,-0.358074 -0.729313,0.20478 -1.074224,0.358074 -1.805445,0.80242 -3.585578,1.660739 -5.371118,2.506522 -2.750119,1.302687 -5.425181,2.772183 -8.235715,3.938821 -7.126454,2.95815 -15.087925,4.740976 -21.48447,9.309938 -0.09713,0.06937 0.238715,0 0.358074,0 0.835506,0 1.693735,0.193519 2.506522,0 1.726133,-0.410985 3.387426,-1.079166 5.013042,-1.790374 2.200645,-0.962782 4.276637,-2.189954 6.445342,-3.22267 5.690092,-2.709566 11.520334,-5.120603 17.187577,-7.877641 1.584724,-0.770945 3.16054,-1.572503 4.65497,-2.506522 0.429419,-0.268388 1.527154,-0.847757 1.074222,-1.074222 -0.574905,-0.287454 -1.24351,0.378381 -1.790372,0.716148 -5.576919,3.444568 -10.780157,7.490082 -16.471429,10.742237 -2.085552,1.191744 -4.327993,2.088377 -6.44534,3.22267 -1.226971,0.657307 -2.455031,1.329745 -3.580746,2.148448 -0.215847,0.156977 -0.624967,0.716148 -0.358074,0.716148 3.356737,0 4.472945,-1.644992 7.16149,-3.580744 3.590981,-2.585508 7.05403,-5.060762 10.742237,-7.519567 1.652881,-1.101921 3.317983,-2.186802 5.013042,-3.22267 0.455469,-0.278341 1.966084,-0.71615 1.432298,-0.71615 -0.642763,0 -1.243854,0.377828 -1.790372,0.71615 -1.970503,1.219835 -3.763941,2.71054 -5.729192,3.938821 -11.202784,7.00174 -6.223291,3.469719 -18.619875,9.668012 -2.675329,1.337665 -5.270664,2.83047 -7.877641,4.296894 -1.213183,0.682416 -2.440421,1.350219 -3.580746,2.148446 -0.09778,0.06845 -0.115795,0.329126 0,0.358076 2.675345,0.668835 3.053765,-2.164585 5.371118,-3.580746 2.824282,-1.725949 6.003528,-2.79264 8.951865,-4.296894 7.172881,-3.659635 9.106133,-4.962374 15.755279,-8.951862 1.790372,-1.074224 3.580743,-2.148449 5.371118,-3.222673 0.596789,-0.358074 1.167876,-0.762974 1.790372,-1.074224 0.106757,-0.05338 0.46483,-0.05338 0.358074,0 -6.292914,3.146459 -12.21355,7.320269 -18.619875,10.384163 -2.559455,1.224087 -5.294828,2.048666 -7.87764,3.22267 -1.361501,0.618865 -2.622027,1.439407 -3.938821,2.148448 -0.234989,0.126534 -0.969346,0.442473 -0.716147,0.358074 5.435446,-1.811816 5.055946,-1.973905 11.458384,-5.371118 6.319943,-3.353438 12.702743,-6.589665 18.977951,-10.026087 0.1758,-0.09627 6.937888,-3.640685 8.235714,-5.371118 0.226465,-0.301956 -0.745254,0.17303 -1.074224,0.358074 -4.532161,2.549342 -8.849976,5.462569 -13.248759,8.235714 -4.901895,3.090328 -9.811776,6.16847 -14.681054,9.309939 -1.92663,1.242986 -4.815033,2.072555 -5.371118,4.296894 -0.0579,0.23159 0.4875,0.0686 0.71615,0 0.976786,-0.293037 1.967897,-0.588513 2.864596,-1.074224 1.980205,-1.07261 3.798078,-2.422078 5.729192,-3.580744 2.247017,-1.348211 4.556398,-2.590609 6.803417,-3.93882 4.914873,-2.948924 9.811189,-5.929188 14.681054,-8.951865 1.096933,-0.680855 2.164995,-1.408073 3.22267,-2.148446 0.138284,-0.0968 0.477433,-0.238717 0.358076,-0.358074 -0.168798,-0.168799 -0.499406,-0.100036 -0.71615,0 -1.357902,0.626724 -2.601156,1.479614 -3.93882,2.148446 -9.032103,4.516051 -18.383147,8.355976 -27.571737,12.532609 -2.04153,0.927967 -4.081484,1.861703 -6.087269,2.864596 -1.099132,0.549566 -2.61298,0.723418 -3.22267,1.790374 -0.318899,0.558075 1.220992,1.014394 1.790372,0.716148 2.179707,-1.141751 3.768829,-3.167795 5.729193,-4.654968 2.321483,-1.761125 4.79035,-3.319373 7.16149,-5.013044"
       id="path2" />
    <path
       style="fill:#008000;stroke:none;stroke-width:0.499999"
       d="m 142.20776,68.086335 c 4.26684,-0.78428 8.07104,-3.588948 11.81646,-5.729192 3.79391,-2.167948 5.0011,-2.567331 8.95187,-5.013044 6.70415,-4.150194 -1.27945,0.337981 4.65496,-3.22267 0.51295,-0.307772 1.98859,-0.914363 2.50653,-1.432298 0.16879,-0.168799 -0.1688,-0.547352 0,-0.716151 1.63033,-1.630333 4.21304,-3.44224 6.08726,-4.654968 1.01427,-0.656288 5.13668,-2.27208 6.08727,-3.22267 0.3043,-0.304305 -0.75257,0.430237 -1.07422,0.716148 -0.82247,0.731086 -1.59732,1.528535 -2.50653,2.148448 -1.72509,1.1762 -3.58074,2.148446 -5.37111,3.22267 -2.91884,1.751306 -13.19863,7.959252 -15.75528,9.309939 -3.39851,1.795439 -6.96863,3.250189 -10.38416,5.013042 -0.3,0.154837 -0.95487,0.477432 -0.71615,0.71615 1.05751,1.057516 2.75341,-1.236594 3.93882,-2.148448 0.96622,-0.743252 14.5889,-11.038875 17.90372,-13.248757 1.95874,-1.305827 4.20398,-2.168278 6.08727,-3.580746 0.0955,-0.07162 -0.26095,-0.06938 -0.35808,0 -0.75857,0.54184 -1.4205,1.208021 -2.14844,1.790372 -6.46994,5.175948 -7.55073,5.829358 -15.75528,11.816461 -0.82941,0.605242 -1.63583,1.246193 -2.50652,1.790372 -0.10122,0.06326 -0.47743,0 -0.35808,0 4.85873,0 -0.49678,0.146558 10.38416,-7.519564 2.87929,-2.02859 7.80554,-4.511506 11.10031,-6.087269 1.0605,-0.507193 2.21466,-0.827487 3.22267,-1.432298 0.22886,-0.137314 0.62497,-0.716148 0.35808,-0.716148 -0.64276,0 -1.22099,0.417902 -1.79037,0.716148 -1.94097,1.016698 -3.82077,2.146125 -5.7292,3.222672 -5.49309,3.098671 -11.15061,5.923966 -16.47142,9.309936 -1.28957,0.820632 -2.35792,1.947479 -3.58075,2.864597 -0.21351,0.160136 -0.93822,0.506121 -0.71615,0.358076 4.4347,-2.956467 8.75217,-6.090399 13.24876,-8.951865 2.79788,-1.780468 5.7623,-3.286524 8.59379,-5.013042 2.06347,-1.258215 4.03781,-2.657908 6.08726,-3.93882 0.81603,-0.510016 1.6905,-0.922282 2.50653,-1.432298 0.14314,-0.08946 0.50905,-0.433565 0.35807,-0.358074 -3.59552,1.797762 -4.73851,3.241704 -8.59379,6.087266 -2.95836,2.183554 -5.96421,4.30203 -8.95186,6.445343 -2.50284,1.795515 -5.01304,3.580744 -7.51957,5.371115 -1.67101,1.193583 -4.36366,1.632612 -5.01304,3.580747 -0.55729,1.671868 3.14785,-1.593117 4.65497,-2.506522 2.43486,-1.475677 4.71032,-3.206547 7.16149,-4.654968 5.28982,-3.125806 10.7497,-5.954525 16.11335,-8.951865 1.5384,-0.859687 3.16054,-1.572503 4.65497,-2.50652 0.42942,-0.268388 1.4323,-0.71615 1.07423,-1.074224 -0.43036,-0.430353 -1.25125,0.07568 -1.79037,0.358074 -1.99494,1.044964 -3.79809,2.422078 -5.7292,3.580746 -11.61823,6.97094 -10.58731,6.267527 -23.63292,12.890683 -3.33171,1.691486 -6.68406,3.342029 -10.02609,5.013042 -1.90973,0.954868 -3.81946,1.909733 -5.72919,2.864598 -0.23871,0.119357 -0.95486,0.238715 -0.71614,0.358074 2.3438,1.171901 4.57533,-2.559534 6.80341,-3.93882 6.57569,-4.070668 22.11351,-11.690646 27.21366,-14.322981 1.56602,-0.808267 3.09548,-1.685737 4.65497,-2.506522 0.70854,-0.372914 1.58228,-0.508058 2.14845,-1.074224 0.2532,-0.253196 -0.77629,-0.198623 -1.07422,0 -1.19588,0.79725 -2.10036,1.966746 -3.22267,2.864596 -2.46064,1.968505 -4.93805,3.922131 -7.51957,5.729192 -0.006,0.0042 -17.30891,11.350503 -18.61987,12.174535 -1.40388,0.882436 -2.8847,1.637475 -4.2969,2.506522 -0.14376,0.08847 -0.52458,0.385824 -0.35807,0.358074 4.41514,-0.735856 5.98466,-3.347953 10.38416,-6.087266 8.92966,-5.55998 13.4759,-7.508287 22.55869,-12.890685 2.67764,-1.586749 5.29963,-3.269091 7.87764,-5.013042 1.48294,-1.003162 2.88909,-2.116539 4.2969,-3.22267 0.26546,-0.208576 1.05114,-0.758023 0.71615,-0.71615 -3.5171,0.439637 -10.51398,4.513162 -12.17454,5.371118 -4.31653,2.230208 -8.62786,4.472189 -12.89068,6.803417 -3.37717,1.846887 -6.68406,3.819461 -10.02609,5.729192 -1.67101,0.954865 -3.4271,1.774259 -5.01304,2.864596 -0.35463,0.243805 -1.13365,1.1786 -0.71615,1.074224 3.05108,-0.76277 11.16823,-5.496237 12.89068,-6.445342 18.76966,-10.342462 1.16626,-0.898898 17.54565,-9.309939 1.80502,-0.926896 3.65555,-1.781077 5.37112,-2.864596 0.57087,-0.360548 1.80683,-0.870503 1.4323,-1.432298 -0.40273,-0.604092 -1.49392,0.0439 -2.14844,0.358076 -2.3624,1.133949 -4.52823,2.638711 -6.80342,3.938818 -6.54278,3.738732 -13.20315,7.272314 -19.6941,11.10031 -1.71112,1.009121 -3.34522,2.143496 -5.01304,3.222673 -0.36131,0.233789 -1.49173,0.820523 -1.07423,0.716148 5.03113,-1.257782 6.84343,-3.440798 11.81646,-6.44534 3.06652,-1.852689 6.19926,-3.593584 9.30994,-5.371118 2.35241,-1.344235 13.52333,-7.18557 13.9649,-8.951865 0.0868,-0.347382 -0.73452,-0.113231 -1.07422,0 -1.47203,0.490678 -2.91751,1.079783 -4.29689,1.790374 -2.56637,1.32207 -5.02593,2.842274 -7.51957,4.296894 -3.23573,1.887511 -6.45038,3.810987 -9.66801,5.729193 -2.98901,1.78191 -5.9403,3.627583 -8.95186,5.371118 -0.55938,0.32385 -5.47072,2.307331 -5.01305,3.22267 0.30028,0.600546 4.41724,-1.815499 5.01305,-2.148448 2.66253,-1.487885 4.50313,-3.87579 7.16149,-5.371117 0.74392,-0.418458 15.41317,-7.148176 17.18757,-8.235714 1.38416,-0.848352 2.64007,-1.89053 3.93882,-2.864596 0.61142,-0.45856 1.60502,-0.690853 1.79038,-1.432298 0.11579,-0.463179 -0.98669,-0.171389 -1.4323,0 -1.14696,0.441137 -2.13744,1.213842 -3.22267,1.790372 -2.7345,1.4527 -5.53407,2.783972 -8.23572,4.296894 -3.26842,1.830319 -6.40889,3.882356 -9.66801,5.729192 -3.90349,2.211981 -7.94925,4.170514 -11.81646,6.445343 -0.23004,0.135319 -0.35807,0.449255 -0.35807,0.716148 0,0.119359 0.24228,0.02895 0.35807,0 0.843,-0.210749 1.73679,-0.312955 2.50653,-0.716148 1.75971,-0.921758 3.33479,-2.159783 5.01304,-3.222673 8.4137,-5.328676 13.32863,-9.13666 20.05217,-16.471426"
       id="path3"
       sodipodi:nodetypes="cssssssssssssssssssssssssssssssssssssssssssssssssssssssssssscssssssssssssssssssssssssssssssssssssssssssc" />
    <path
       style="fill:#008000;stroke:none;stroke-width:0.499999"
       d="m 220.62608,46.243787 c 10.31718,5.158586 7.66018,3.746375 26.85559,16.471429 2.54803,1.689139 4.66686,3.962159 7.1615,5.729192 0.40159,0.284459 0.94973,0.261562 1.4323,0.358074 0.11702,0.02341 0.47741,0 0.35806,0 -0.80862,0 -1.79795,0.04682 -2.5065,-0.358074 -1.18161,-0.67519 -2.15098,-1.667791 -3.22269,-2.506522 -1.67353,-1.309722 -3.38048,-2.578354 -5.01304,-3.938818 -1.94943,-1.624526 -3.80251,-3.361603 -5.72919,-5.013045 -2.25104,-1.929463 -4.67176,-3.668593 -6.80342,-5.729192 -1.46141,-1.4127 -2.63758,-3.093484 -3.93882,-4.654968 -0.48927,-0.587126 -0.89188,-1.249958 -1.4323,-1.790374 -0.18872,-0.188722 -0.98304,-0.358074 -0.71614,-0.358074 3.84363,0 6.19573,4.55059 9.30993,6.803416 2.87042,2.076474 5.92566,3.887153 8.95187,5.729192 2.46597,1.501029 4.98241,2.919582 7.51956,4.296895 1.64193,0.891328 3.32462,1.70675 5.01304,2.506522 0.58089,0.275159 2.07782,0.141242 1.79038,0.716148 -0.32028,0.640543 -1.44936,0.155355 -2.14845,0 -1.47383,-0.327515 -2.92986,-0.791499 -4.29688,-1.432299 -2.46685,-1.156327 -4.76778,-2.637879 -7.1615,-3.938817 -10.93059,-5.940536 -7.61845,-3.791035 -17.90373,-10.384163 -1.81152,-1.161232 -3.63883,-2.304322 -5.37112,-3.580744 -0.54357,-0.400523 -1.73425,-0.828389 -1.4323,-1.432298 0.28746,-0.574905 1.2599,0.35319 1.79038,0.716148 1.75387,1.200018 3.33041,2.640793 5.01304,3.93882 6.27521,4.840878 13.0725,11.04156 20.76832,13.606833 0.2532,0.0844 -0.49164,-0.213752 -0.71615,-0.358077 -1.44801,-0.930862 -2.87981,-1.887294 -4.29689,-2.864596 -2.0446,-1.410067 -3.949,-3.033371 -6.08727,-4.296894 -3.12528,-1.846757 -6.3943,-3.444388 -9.66801,-5.013042 -2.45927,-1.178398 -5.01304,-2.148448 -7.51957,-3.222672 -0.8355,-0.358074 -1.77931,-0.52882 -2.50652,-1.074222 -0.28646,-0.214847 0.75776,-0.167539 1.07423,0 1.75565,0.929466 3.38137,2.089568 5.01304,3.22267 7.79732,5.414804 15.2326,11.407794 23.27484,16.471429 0.90342,0.568814 3.55937,2.242857 2.8646,1.432298 -1.383,-1.613506 -3.36235,-2.60042 -5.01304,-3.93882 -14.52156,-11.774234 -1.71289,-2.205207 -19.6941,-14.322981 -1.70292,-1.147614 -3.33539,-2.396519 -5.01305,-3.580746 -0.35158,-0.248177 -1.50457,-0.716148 -1.07422,-0.716148 0.75489,0 1.48856,0.349541 2.14845,0.716148 2.57695,1.431642 5.00893,3.109965 7.51956,4.654968 6.57291,4.044868 13.07616,8.203771 19.6941,12.174535 1.28243,0.769456 2.58358,1.515999 3.93882,2.148448 0.44596,0.208113 1.84177,0.631055 1.4323,0.358074 -1.11035,-0.740228 -2.44539,-1.08912 -3.58075,-1.790372 -2.92914,-1.809176 -5.62881,-3.97937 -8.59379,-5.729195 -4.32338,-2.551504 -8.81724,-4.80278 -13.24875,-7.16149 -2.98396,-1.551654 -5.96791,-3.103311 -8.95187,-4.654968 -0.8355,-0.358074 -1.69348,-0.667705 -2.50652,-1.074224 -0.10676,-0.05338 0.24331,-0.03279 0.35808,0 0.72584,0.207383 1.4898,0.347308 2.14844,0.71615 2.34028,1.310553 4.5648,2.819403 6.80342,4.296894 3.73001,2.461803 7.41188,4.9959 11.10031,7.519564 5.75218,3.935701 10.00926,7.332115 16.11337,10.384163 0.77718,0.388602 1.68216,0.441365 2.5065,0.716148 0.11324,0.03775 -0.26093,0.06938 -0.35806,0 -0.75859,-0.54184 -1.41544,-1.21443 -2.14844,-1.790372 -2.60941,-2.05024 -5.15447,-4.190765 -7.87765,-6.087266 -5.26524,-3.666861 -15.10723,-9.783178 -21.1264,-13.248759 -0.92518,-0.53268 -1.93137,-0.913839 -2.8646,-1.432298 -0.14755,-0.08198 -0.18928,-0.358074 -0.35807,-0.358074 -0.11936,0 -0.0993,0.291867 0,0.358074 1.02248,0.681654 2.22736,1.069631 3.22267,1.790372 2.47604,1.792996 4.68704,3.934002 7.16149,5.729192 6.61235,4.797197 12.03895,8.271348 18.97795,12.174535 1.16309,0.654238 2.33523,1.311328 3.58075,1.790372 0.3342,0.128542 1.32742,0.253198 1.07421,0 -5.52875,-5.52876 -18.78447,-12.373243 -25.42328,-15.755279 -2.3325,-1.188254 -4.73724,-2.235009 -7.16149,-3.22267 -0.80472,-0.327848 -3.35477,-0.90465 -2.50653,-0.71615 1.92163,0.427029 3.91495,0.668406 5.7292,1.432298 4.99661,2.103839 12.9805,7.579444 17.18757,10.384163 1.92829,1.285525 3.8144,2.633276 5.7292,3.93882 0.71113,0.484865 1.67101,0.716148 2.14844,1.432298 0.27299,0.409472 -0.99212,-0.137991 -1.43229,-0.358077 -1.72141,-0.860702 -3.34461,-1.90524 -5.01305,-2.864596 -6.44276,-3.704587 -12.94804,-7.302047 -19.33602,-11.10031 -1.10971,-0.659826 -2.64529,-0.99369 -3.22267,-2.148446 -0.32027,-0.640543 1.45368,-0.173691 2.14844,0 1.72141,0.430353 3.44381,0.962163 5.01305,1.790372 5.00608,2.6421 10.55412,6.954454 15.03913,10.384163 1.6881,1.290899 3.31295,2.663751 5.01304,3.938817 0.68856,0.516425 1.40115,1.005272 2.14845,1.432299 0.10363,0.05922 0.35807,0.119358 0.35807,0 0,-0.119357 -0.28646,0.09549 -0.35807,0 -0.32027,-0.427027 -0.47744,-0.954866 -0.71615,-1.432299"
       id="path4" />
    <path
       style="fill:#008000;stroke:none;stroke-width:0.499999"
       d="m 37.649995,131.8236 c 5.659728,1.82791 11.244654,4.42898 16.113355,7.87764 1.734142,1.22835 3.302209,2.67821 5.013042,3.93882 0.560297,0.41285 1.233596,0.65664 1.790372,1.07423 1.766448,1.32483 3.340253,3.20521 5.013044,4.65496 1.213485,1.05169 2.318075,2.23058 3.580746,3.22267 0.966933,0.75974 2.395567,1.25957 3.580742,2.14845 0.80814,0.60611 1.9985,0.77433 2.50652,1.79037 0.0534,0.10676 0.11936,0.35808 0,0.35808 -1.77866,0 -6.856411,-4.9268 -7.877636,-5.7292 -3.111778,-2.44496 -11.019523,-8.57651 -13.964907,-10.74223 -3.613859,-2.65725 -4.635986,-2.84561 -7.519564,-5.72919 -0.377444,-0.37745 -1.093594,-1.05486 -0.71615,-1.4323 0.0844,-0.0844 0.255728,-0.0614 0.358076,0 1.10707,0.66424 2.19478,1.36725 3.22267,2.14845 7.205636,5.47628 14.129412,12.10259 22.558695,15.75527 1.594606,0.691 3.345776,0.94193 5.013046,1.4323 0.3621,0.10651 0.954859,0.71615 1.074219,0.35808 0.11936,-0.35808 -0.742869,-0.17733 -1.074219,-0.35808 -2.30048,-1.2548 -4.597317,-2.52465 -6.803418,-3.93881 -5.484275,-3.51557 -8.510788,-6.08077 -13.606832,-10.02609 -1.547937,-1.1984 -3.126325,-2.35783 -4.654968,-3.58075 -0.85929,-0.68743 -1.684052,-1.41736 -2.506523,-2.14845 -0.252322,-0.22428 -1.03642,-0.60939 -0.71615,-0.71614 2.136479,-0.71216 3.927557,2.22951 5.729195,3.58074 24.663395,18.49755 -7.662786,-6.48484 13.60683,10.38416 1.402755,1.11253 2.845477,2.17443 4.296894,3.22267 0.697752,0.50394 2.757062,0.82369 2.148452,1.4323 -0.64277,0.64276 -1.750188,-0.57 -2.506526,-1.07422 -1.411488,-0.94099 -2.581701,-2.20483 -3.93882,-3.22267 -7.14289,-5.35717 -8.335187,-5.90716 -16.113352,-10.74224 -1.547334,-0.96186 -3.114554,-1.8917 -4.654971,-2.8646 -0.727715,-0.45961 -1.401146,-1.00526 -2.148446,-1.43229 -0.103632,-0.0592 -0.461706,-0.0592 -0.358074,0 6.93333,3.9619 -2.149811,-2.62999 8.593789,6.80341 2.928363,2.57125 6.023498,4.94832 8.951862,7.51957 1.967068,1.72718 3.670824,3.75383 5.729192,5.37111 1.303856,1.02446 2.833799,1.72621 4.296894,2.50653 0.333039,0.17762 1.341122,0.62496 1.074222,0.35807 -0.843987,-0.84399 -1.947659,-1.38433 -2.864594,-2.14844 -2.855777,-2.37982 -5.272611,-5.2748 -8.235714,-7.51957 -2.269429,-1.71927 -4.811729,-3.04724 -7.16149,-4.65497 -2.187216,-1.49651 -4.31577,-3.07751 -6.445343,-4.65497 -1.093555,-0.81004 -2.177203,-1.6353 -3.22267,-2.50652 -0.389022,-0.32419 -1.234358,-0.59381 -1.074224,-1.07422 0.150979,-0.45294 1.027438,-0.25304 1.432298,0 1.581039,0.98815 2.84448,2.41172 4.296894,3.58074 3.44157,2.77004 6.953417,5.45228 10.384163,8.23572 5.914043,4.79818 9.04662,8.0937 15.3972,11.81646 1.10903,0.65011 2.456999,0.80799 3.580749,1.43229 0.14756,0.082 -0.2071,0.43357 -0.35808,0.35808 -0.45293,-0.22647 -0.68442,-0.75098 -1.07422,-1.07422 -13.587824,-11.26796 -11.269238,-9.89481 -24.707139,-18.26181 -3.154784,-1.96429 -11.5844,-5.88671 -14.322981,-9.30993 -0.149127,-0.18641 0.523645,-0.14117 0.716148,0 1.639096,1.202 3.078565,2.6557 4.654968,3.93882 6.650215,5.41296 13.309727,10.81571 20.052175,16.11335 1.877071,1.47484 3.781208,2.91707 5.729192,4.29689 0.918861,0.65086 3.660818,2.5866 2.864598,1.79038 -1.147952,-1.14795 -2.680268,-1.83911 -3.938822,-2.8646 -7.716792,-6.28776 -4.187407,-4.46899 -13.248756,-10.74224 -2.070169,-1.43319 -4.306065,-2.61099 -6.445343,-3.93882 -1.322244,-0.8207 -2.613435,-1.69089 -3.93882,-2.50652 -0.227301,-0.13988 -0.954865,-0.47743 -0.716148,-0.35807 5.864014,2.93201 -2.391645,-1.45454 8.593789,7.16149 3.777768,2.96295 7.900037,5.45861 11.816458,8.23571 2.648598,1.8781 5.141494,3.9811 7.877642,5.7292 1.57437,1.00584 3.30581,1.74775 5.013039,2.50652 0.44971,0.19987 1.75257,0.73172 1.4323,0.35807 -0.99476,-1.16055 -2.366549,-1.93609 -3.580749,-2.86459 -6.534862,-4.99726 -15.290719,-12.06527 -22.916764,-16.47143 -2.542027,-1.46873 -5.202018,-2.73048 -7.877641,-3.93882 -1.031973,-0.46605 -3.22267,-2.20656 -3.22267,-1.07423 0,1.22887 2.222699,1.07611 3.22267,1.79038 2.351164,1.6794 4.535609,3.58074 6.803417,5.37111 3.580743,2.50653 7.148552,5.03163 10.742234,7.51957 2.613056,1.80904 5.209354,3.64458 7.87764,5.37112 1.392156,0.90081 2.851664,1.69358 4.296894,2.50652 0.46524,0.26169 1.72839,1.16028 1.4323,0.71615 -0.5171,-0.77565 -1.46695,-1.15431 -2.14845,-1.79037 -1.1106,-1.03657 -2.098567,-2.20076 -3.22267,-3.22267 -4.178276,-3.79844 -8.864155,-7.6595 -13.60683,-10.74224 -0.895101,-0.58181 -1.931371,-0.91384 -2.864596,-1.4323 -0.147558,-0.082 -0.509053,-0.28258 -0.358077,-0.35807 1.776794,-0.8884 3.429609,2.02309 5.013045,3.22267 6.056622,4.58835 11.537804,8.45487 18.261798,12.17453 2.057279,1.13807 4.28924,1.92716 6.445353,2.8646 0.58945,0.25628 2.325181,1.07269 1.790371,0.71615 -1.244381,-0.82959 -2.675352,-1.34825 -3.938824,-2.14845 -10.285265,-6.514 -4.29145,-3.86038 -17.18758,-11.10031 -5.964124,-3.34828 -12.321526,-5.91549 -18.261801,-9.30994"
       id="path5" />
    <path
       style="fill:#008000;stroke:none;stroke-width:0.499999"
       d="m 141.13354,133.2559 c 1.88295,1.16435 3.64882,1.17225 5.72919,1.4323 3.77046,0.4713 -1.53883,0.35807 2.14845,0.35807 1.26528,0 3.23049,0.5332 4.29689,0 0.10676,-0.0534 -0.0993,-0.29187 0,-0.35807 0.31405,-0.20937 0.73663,-0.18928 1.07423,-0.35808 0.30195,-0.15098 0.39587,-0.60939 0.71615,-0.71615 0.33969,-0.11323 0.75395,0.16014 1.07422,0 0.4733,-0.23665 0.23975,-0.65698 0.35807,-0.71615 0.21352,-0.10675 0.50264,0.10676 0.71615,0 0.0698,-0.0349 0.28038,-0.63845 0.35808,-0.71615 0.0844,-0.0844 0.35807,0.11936 0.35807,0 0,-0.7286 -0.99928,1.14362 -1.4323,1.4323 -0.8127,0.5418 -2.67758,0.68716 -3.58074,1.07423 -0.39556,0.16952 -0.65672,0.61177 -1.07423,0.71614 -0.57897,0.14475 -1.19819,-0.074 -1.79037,0 -2.10029,0.26254 -4.08335,0.84428 -6.08726,-0.35807 -0.28949,-0.17369 -0.42987,-0.53722 -0.71615,-0.71615 -1.35795,-0.84872 -2.92375,-1.32455 -4.2969,-2.14845 -0.10235,-0.0614 0.25132,-0.0534 0.35807,0 0.6225,0.31125 1.13012,0.85414 1.79038,1.07423 0.80068,0.26689 1.67401,0.21932 2.50652,0.35807 5.46692,0.91116 -1.99192,-0.31894 3.58075,1.07423 0.48446,0.12111 7.11474,0.86667 7.87764,0.35807 0.6359,-0.42394 1.33181,-0.82089 1.79037,-1.4323 0.14323,-0.19097 -0.0755,-0.48968 0,-0.71615 0.0534,-0.16013 0.35807,-0.18927 0.35807,-0.35807 0,-0.35808 -0.72684,-0.0868 -1.07422,0 -0.92849,0.23212 -1.66348,1.07099 -2.50652,1.4323 -0.45234,0.19386 -0.94973,0.26156 -1.4323,0.35807 -0.75754,0.15151 -9.89795,1.65768 -10.38416,1.07422 -0.48327,-0.57991 -0.18237,-1.61466 -0.71615,-2.14844 -0.34526,-0.34526 -3.32628,-0.50894 -2.50652,-2.14845 0.0534,-0.10676 0.24103,-0.0234 0.35807,0 0.48257,0.0965 1.08431,0.0101 1.4323,0.35808 0.4545,0.4545 0.13254,1.52101 0.71615,1.79037 1.19701,0.55246 2.62949,0.20403 3.93882,0.35807 3.27106,0.38483 8.78718,2.3776 11.81646,0.35808 0.55103,-0.36736 0.87426,-1.23234 1.07422,-1.4323 0.0844,-0.0844 0.27368,0.0844 0.35808,0 0.34798,-0.34799 -0.97997,-0.55193 -1.4323,-0.35808 -0.54854,0.23509 -0.91061,0.7844 -1.4323,1.07423 -2.53816,1.41009 -5.75334,1.8644 -8.59379,2.14844 -2.86053,0.28606 -6.22924,0.5989 -7.87764,-2.14844 -0.48364,-0.80607 -1.14174,-2.18221 -1.07422,-2.14845 0.9466,0.4733 1.32946,1.20185 3.22267,2.14845 3.73941,1.8697 9.4373,3.87514 13.60683,1.79037 0.38492,-0.19246 0.68931,-0.52369 1.07422,-0.71615 0.51738,-0.25869 2.14845,-0.61896 2.14845,-1.4323 0,-0.11935 -0.23872,0 -0.35807,0 -0.47744,0 -0.97937,-0.15097 -1.4323,0 -0.5064,0.1688 -0.92591,0.54736 -1.4323,0.71615 -2.45047,0.81683 -5.28698,1.55486 -7.87764,1.79037 -0.9957,0.0905 -4.19934,0.45564 -5.01304,-0.35807 -0.4545,-0.4545 -0.31462,-1.28846 -0.71615,-1.79037 -0.63269,-0.79086 -2.8646,-1.4323 -2.14845,-2.14845 0.71615,-0.71615 1.31574,1.57196 2.14845,2.14845 1.40826,0.97495 4.64996,1.89196 6.44534,2.14844 1.14727,0.1639 3.1959,0.31458 4.29689,0 0.4138,-0.11822 0.67867,-0.54662 1.07423,-0.71614 0.45233,-0.19386 0.99212,-0.13799 1.4323,-0.35808 0.9137,-0.45685 0.82928,-0.82929 1.43229,-1.4323 0.29512,-0.29511 1.34219,-0.35807 0.71615,-0.35807 -3.04241,0 -2.79201,0.698 -5.72919,1.4323 -2.36187,0.59046 -5.08717,1.07422 -7.51956,1.07422 -0.71615,0 -1.78,0.61409 -2.14845,0 -0.30705,-0.51174 0.54854,-1.55528 0,-1.79037 -0.79869,-0.34229 -1.63758,0.71615 -2.50652,0.71615 -0.43036,0 -0.72995,-0.45794 -1.07423,-0.71615 -0.13504,-0.10128 -0.35807,-0.18928 -0.35807,-0.35808 0,-0.35807 0.72102,-0.0589 1.07422,0 0.48543,0.0809 0.94397,0.29704 1.4323,0.35808 0.47375,0.0592 0.97936,-0.15098 1.4323,0 3.711,1.237 1.64556,1.48943 4.65497,1.79037 1.702,0.1702 6.78402,0.87101 8.23571,0 0.6079,-0.36474 1.13905,-1.10663 1.79037,-1.4323 0.21352,-0.10675 0.95487,0 0.71615,0 -2.14059,0 -3.99033,0.50646 -6.08726,0.71615 -1.85235,0.18524 -3.86983,0 -5.7292,0 -0.47743,0 -0.975,0.13719 -1.43229,0 -0.76692,-0.23007 -1.38886,-0.82103 -2.14845,-1.07422 -0.71615,-0.23872 -2.68224,-0.18237 -2.14845,-0.71615 0.53379,-0.53379 1.4226,0.50877 2.14845,0.71615 4.00128,1.14322 8.0426,1.79037 12.17453,1.79037 1.95463,0 3.06838,-0.73265 4.65497,-1.79037 0.23872,-0.11936 0.47743,-0.23872 0.71615,-0.35808 0,-0.11935 -0.0844,-0.27367 0,-0.35807 0.0844,-0.0844 0.4689,-0.0443 0.35807,0 -4.26636,1.70654 -8.93522,3.33176 -13.60683,2.86459 -3.26738,-0.32673 -0.50188,-0.3969 -4.29689,-2.14844 -1.91293,-0.88289 -1.89943,0.37353 -2.8646,-1.07423 -0.0662,-0.0993 -0.11323,-0.32033 0,-0.35807 1.48047,-0.49349 1.55876,0.8296 2.8646,1.4323 0.89366,0.41246 1.92387,0.42669 2.8646,0.71615 3.20309,0.98557 6.25786,1.85856 9.66801,1.43229 0.93919,-0.11739 1.81912,-0.38682 2.50652,-1.07422 0.18872,-0.18872 0.136,-0.5681 0.35807,-0.71615 0.35808,-0.23871 1.31294,0.47744 0.71615,-0.71615 -0.30649,-0.61297 -4.90671,1.70594 -5.37112,1.79038 -0.70459,0.12811 -1.43477,-0.0595 -2.14844,0 -2.53398,0.21116 -4.96252,0.35807 -7.51957,0.35807 -0.47743,0 -1.18666,0.4094 -1.4323,0 -0.31312,-0.52188 0.7477,-1.32282 0.35808,-1.79037 -2.477,-2.9724 -1.80259,1.75372 -2.8646,-1.4323 -0.0755,-0.22647 0.50889,-0.11844 0.71615,0 0.7473,0.42703 1.33789,1.14281 2.14845,1.4323 1.47845,0.52802 3.16562,0.2197 4.65497,0.71615 0.50639,0.1688 0.90888,0.61146 1.4323,0.71615 1.24878,0.24975 8.19548,0.43853 8.95186,-1.07423 0.17166,-0.34332 0,-1.03533 0,-1.4323"
       id="path6" />
    <path
       style="fill:#008000;stroke:none;stroke-width:0.499999"
       d="m 223.49068,143.64006 c 2.26222,0.36156 4.14122,1.6347 5.72919,3.22267 0.74684,0.74684 1.18366,1.92765 2.14845,2.50652 0.32366,0.19419 0.71615,0.23872 1.07422,0.35808 0.35808,0.35807 0.65288,0.79332 1.07423,1.07422 3.22987,2.15325 -1.23216,-1.74294 2.14844,1.07422 0.98237,0.81864 2.2288,1.87806 3.58075,2.14845 0.5852,0.11704 1.2114,-0.14474 1.79037,0 1.26281,0.3157 2.19698,0.90125 3.58073,1.07423 1.49591,0.18698 3.15347,0 4.65498,0 2.56437,0 5.32931,0.28314 7.87765,0 2.41633,-0.26849 4.8633,-1.459 7.16148,-2.14845 0.56647,-0.16994 2.57982,-0.44063 3.22267,-0.71615 1.44833,-0.62071 2.88354,-1.44177 4.29689,-2.14845 1.39364,-0.69681 0.90035,-0.0278 2.50653,-0.71615 2.50828,-1.07497 -0.1347,-0.27726 1.79038,-1.4323 1.67238,-1.00342 3.12807,-1.2431 3.93883,-2.86459 0.0755,-0.15098 0.35806,-0.18928 0.35806,-0.35808 0,-0.64612 -1.33231,0.97889 -2.14844,1.4323 -0.6599,0.36661 -1.46122,0.40378 -2.14845,0.71615 -7.69337,3.49699 3.38937,-1.15757 -3.22268,2.14845 -0.44016,0.22008 -0.97996,0.16421 -1.43229,0.35807 -0.39555,0.16953 -0.66596,0.58006 -1.07424,0.71615 -2.09401,0.69801 -1.95101,0.1593 -3.93879,0.35808 -0.60561,0.0606 -1.19359,0.23871 -1.79039,0.35807 -0.71614,0.11936 -1.42541,0.29234 -2.14844,0.35808 -0.59433,0.054 -1.19724,-0.0659 -1.79038,0 -0.97822,0.10869 -1.88794,0.59406 -2.86459,0.71614 -2.1145,0.26432 -4.33338,-0.28159 -6.44536,0 -3.89607,0.51948 -7.50397,1.4323 -11.45837,1.4323 -2.27886,0 -4.05485,0.0549 -6.08727,-1.07422 -1.45975,-0.81098 -1.1642,-1.11922 -2.50652,-1.79037 -0.3376,-0.1688 -0.80733,-0.0912 -1.07423,-0.35808 -0.16879,-0.1688 0.13242,-0.51752 0,-0.71615 -0.14804,-0.22207 -0.52742,-0.16935 -0.71614,-0.35807 -1.4323,-1.4323 0.11936,-0.83551 -1.79038,-1.79037 -1.20723,-0.60362 -1.26467,-0.0807 -2.50652,-1.07423 -0.20841,-0.16673 -0.20294,-0.49897 -0.35807,-0.71615 -0.44422,-0.62191 -2.16716,-2.00033 -1.4323,-1.79037 3.13904,0.89687 7.12012,5.31224 10.02609,7.16149 0.6755,0.42986 1.46187,0.66228 2.14844,1.07422 0.51175,0.30705 0.91061,0.7844 1.4323,1.07423 5.2239,2.90216 10.83304,4.3303 16.8295,3.58074 0.97666,-0.12208 1.8972,-0.53476 2.86459,-0.71615 2.97995,-0.55873 6.11373,-0.96589 8.95186,-2.14844 3.67774,-1.53239 0.66588,-0.55135 4.29691,-2.50652 1.36618,-0.73564 2.9405,-1.03683 4.29689,-1.79038 1.2001,-0.25817 1.55109,-1.60248 2.50653,-2.14844 0.55806,-0.3189 1.79036,-0.0734 1.79036,-0.71616 0,-0.11935 -0.23871,0 -0.35806,0 -0.47745,0 -0.97502,-0.13718 -1.4323,0 -2.30074,0.69023 -4.31975,2.10394 -6.44536,3.22268 -0.85153,0.44818 -1.62202,1.05323 -2.5065,1.4323 -2.54484,1.09063 -6.94182,1.86147 -9.66803,2.14844 -1.06831,0.11246 -2.14993,-0.0565 -3.22265,0 -7.013,0.36911 -11.34932,1.23475 -17.90374,-1.79037 -3.35149,-1.54684 -6.79359,-3.07158 -9.66801,-5.37112 -0.6721,-0.53768 -1.41857,-0.97612 -2.14845,-1.4323 -0.59018,-0.36886 -2.46556,-0.90542 -1.79037,-1.07422 2.31688,-0.57922 4.10757,1.49301 5.72919,2.50652 1.04208,0.6513 2.1806,1.13907 3.22267,1.79037 2.82195,1.76372 5.18058,3.96106 8.23572,5.37112 5.39184,2.48855 18.55468,1.90706 23.99099,-0.35807 1.89548,-0.78978 3.53288,-2.30356 5.37112,-3.22267 5.92188,-2.96094 -3.00503,1.99717 3.93883,-1.79038 1.2986,-0.37273 2.09407,-1.52145 3.22265,-2.14844 0.69993,-0.38885 1.4323,-0.71615 2.14844,-1.07423 0.10676,-0.0534 0.35809,0.11936 0.35809,0 0,-0.11936 -0.23871,0 -0.35809,0 -0.59676,0 -1.21996,-0.17551 -1.79035,0 -1.02037,0.31396 -1.92109,0.9328 -2.86459,1.4323 -5.26148,2.78548 -8.9684,5.32843 -15.03913,6.08727 -3.81923,0.4774 -7.62262,0.35807 -11.45839,0.35807 -2.48999,0 -5.07641,0.25272 -7.51957,-0.35807 -1.4647,-0.36618 -2.8508,-0.99847 -4.2969,-1.4323 -0.47137,-0.14141 -0.99212,-0.13799 -1.43229,-0.35807 -2.21575,-1.10788 -2.99101,-3.70716 -4.65498,-5.37112 -1.34749,-1.34749 -3.27169,-2.16806 -5.01304,-2.8646 -0.44337,-0.17735 -3.15716,-1.13973 -2.86459,-1.4323 0.60861,-0.60861 1.42444,0.96687 2.14844,1.4323 1.0337,0.66452 2.19095,1.12279 3.22267,1.79038 2.51147,1.62506 4.85316,3.98458 7.51957,5.37111 2.08592,1.08468 4.25707,2.00492 6.44534,2.8646 1.15984,0.45565 2.3463,0.90395 3.58076,1.07422 8.57528,1.1828 14.00685,-0.0661 21.84254,-2.86459 2.58673,-0.92384 4.21667,-2.65692 6.80342,-3.58075 0.8183,-0.29225 1.70442,-0.38194 2.5065,-0.71615 1.38052,-0.57521 2.60117,-1.47962 3.93883,-2.14844 0.5338,-0.2669 1.8543,-0.65223 1.43229,-1.07423 -0.32353,-0.32353 -3.51901,1.20936 -5.01303,1.79037 -6.27137,2.43886 -12.39978,5.28538 -18.97795,6.80342 -3.05591,0.70521 -14.21182,1.46935 -17.54566,0.35807 -2.72409,-0.90803 -5.88831,-2.77933 -8.59378,-3.93882 -1.11207,-0.4766 -3.40224,-1.25378 -4.2969,-2.14844 -0.26689,-0.2669 -0.0912,-0.80733 -0.35808,-1.07423 -0.26689,-0.26689 -0.80733,-0.0912 -1.07422,-0.35807 -0.26689,-0.26689 0.005,-0.97053 -0.35807,-1.07422 -0.6981,-0.19946 -2.75254,-0.0447 -2.14845,0.35807 0.89931,0.59954 2.21065,-0.0214 3.22267,0.35808 0.96138,0.36051 1.64284,1.23514 2.50652,1.79037 2.87682,1.84938 5.79175,3.7054 8.95187,5.01304 1.90869,0.78981 12.05502,1.42527 12.17453,1.4323 4.94925,0.29113 9.83478,-0.219 14.68104,-1.07422 2.41861,-0.42682 4.91006,-0.66465 7.16151,-1.79038 0.76983,-0.38492 1.40499,-0.99861 2.14844,-1.4323 1.77498,-1.0354 3.87911,-1.73065 5.37112,-3.22267 0.3043,-0.3043 0.41185,-0.76992 0.71615,-1.07422 0.0844,-0.0844 0.35809,0.11936 0.35809,0 0,-0.49213 -1.015,0.0973 -1.43233,0.35808 -0.64807,0.40505 -1.11744,1.06995 -1.79035,1.43229 -3.52359,1.89731 -8.02302,2.85498 -11.81648,3.93882 -8.05365,2.30105 -16.2537,4.2852 -24.70713,3.58075 -2.28144,-0.19012 -5.04175,-0.54908 -7.16149,-1.4323 -2.31681,-0.96534 -3.89072,-3.09878 -6.08727,-4.29689 -0.56427,-0.30779 -1.26733,-0.34256 -1.79037,-0.71616 -0.35019,-0.25013 -0.43276,-0.75035 -0.71615,-1.07422 -0.55577,-0.63516 -2.6292,-1.88357 -1.79037,-1.79037 3.57126,0.39681 7.13644,3.59216 10.38416,5.01304 1.0374,0.45386 2.16734,0.66382 3.22267,1.07423 1.09561,0.42607 2.09236,1.10935 3.22267,1.4323 4.11534,1.1758 8.66341,1.07422 12.89068,1.07422 2.62589,0 5.26783,0.28998 7.87765,0 2.62004,-0.29112 4.52118,-1.45319 6.80342,-2.50652 3.43487,-1.58533 6.95357,-2.58736 9.30992,-5.72919 0.10128,-0.13505 0.20712,-0.28259 0.35809,-0.35808 0.10676,-0.0534 0.35806,0.11936 0.35806,0 0,-0.29002 -5.27677,2.81743 -5.37112,2.86459 -5.42827,2.71415 -11.2826,3.62803 -17.18757,4.65498 -1.19923,0.20855 -2.37096,0.58172 -3.58074,0.71614 -0.94904,0.10545 -1.91627,-0.11156 -2.86459,0 -1.09289,0.12858 -2.12979,0.58758 -3.22268,0.71615 -0.94832,0.11157 -1.91159,-0.0596 -2.8646,0 -1.66093,0.10381 -4.35058,0.85427 -6.08726,0.35808 -5.30592,-1.51598 -8.7956,-4.79874 -13.60684,-6.80342 -0.59678,-0.23871 -1.19358,-0.47743 -1.79037,-0.71615 -0.11936,-0.23871 -0.136,-0.5681 -0.35807,-0.71615 -0.19863,-0.13241 -0.50264,0.10676 -0.71615,0 -0.10676,-0.0534 -0.10676,-0.30469 0,-0.35807 0.29817,-0.14909 3.20712,-0.71304 3.22267,-0.71615 z"
       id="path7" />
  </g>
</svg>
